<svg id="Layer_1" xmlns="http://www.w3.org/2000/svg" viewBox="0 0 100 100"><style>.st0{fill:#e31837}.st1{enable-background:new}.st2{fill:#fff}</style><circle id="btop" class="st0" cx="50" cy="50" r="49"/><g class="st1"><path class="st2" d="M31.7 66.6V50.2h-6.1V48h14.8v2.2h-6.2v16.4h-2.5zM41.7 57.5c0-3.1.8-5.5 2.5-7.3 1.7-1.7 3.8-2.6 6.4-2.6 1.7 0 3.3.4 4.6 1.2 1.4.8 2.4 2 3.2 3.4.7 1.5 1.1 3.1 1.1 5s-.4 3.6-1.1 5.1-1.8 2.6-3.2 3.4c-1.4.8-2.9 1.1-4.5 1.1-1.8 0-3.3-.4-4.7-1.3s-2.4-2-3.1-3.5-1.2-2.8-1.2-4.5zm2.5.1c0 2.2.6 4 1.8 5.3 1.2 1.3 2.7 1.9 4.5 1.9 1.9 0 3.4-.7 4.6-2 1.2-1.3 1.8-3.2 1.8-5.5 0-1.5-.3-2.8-.8-4-.5-1.1-1.3-2-2.2-2.6-1-.6-2.1-.9-3.3-.9-1.7 0-3.2.6-4.5 1.8-1.3 1.2-1.9 3.2-1.9 6zM62.6 66.6V48h7c1.2 0 2.2.1 2.8.2.9.2 1.7.4 2.3.9.6.4 1.1 1 1.5 1.8.4.8.6 1.6.6 2.5 0 1.6-.5 2.9-1.5 4S72.5 59 69.8 59H65v7.6h-2.4zm2.5-9.8h4.8c1.6 0 2.7-.3 3.4-.9.7-.6 1-1.4 1-2.5 0-.8-.2-1.4-.6-2-.4-.6-.9-.9-1.6-1.1-.4-.1-1.2-.2-2.3-.2H65v6.7z"/></g><path class="st2" d="M50.4 25.2l-7.9 13.7h15.8z"/></svg>